<?xml version="1.0" encoding="UTF-8"?>
<svg id="Layer_2" data-name="Layer 2" xmlns="http://www.w3.org/2000/svg" viewBox="0 0 411.32 108">
  <defs>
    <style>
      .cls-1 {
        fill: #343434;
      }

      .cls-2 {
        fill: #71b3e2;
      }

      .cls-3 {
        fill: #7d7d7d;
      }

      .cls-4 {
        fill: #fcb316;
      }
    </style>
  </defs>
  <g id="J">
    <path id="Z" class="cls-2" d="m407.93,0h-41.48c-.18,0-.36.03-.54.1-3.02,1.21-16.42,7.11-21.34,21.5-.67,1.95-4.01,11.73,0,21.6,8.68,21.32,43.01,21.57,43.2,32.4.04,2.48-1.7,6.11-10.48,10.64-.21.11-.44.16-.67.16h-9.82c-.16,0-.31.03-.46.07-.54.18-1.88.65-2.13.91-6.09,6.39-12.18,12.78-18.26,19.17-.15.16-.14.37-.06.59.21.53.75.85,1.32.85h40.08c.18,0,.36-.03.53-.1,3.01-1.18,16.59-7.04,21.56-21.5.66-1.93,4.03-11.72,0-21.6-8.69-21.32-43.01-21.57-43.2-32.4-.04-2.48,1.7-6.11,10.48-10.64.21-.11.44-.16.67-.16h30.6c.8,0,1.44-.65,1.44-1.44V1.44C409.38.65,408.73,0,407.93,0Z"/>
    <path id="L" class="cls-4" d="m361.72,6.04v77.86c0,1.6-.64,3.14-1.77,4.27l-18.06,18.06c-1.13,1.13-2.67,1.77-4.27,1.77h-34.66c-3.34,0-6.04-2.7-6.04-6.04v-9.49c0-3.35,2.72-6.06,6.07-6.04l31.06.16c3.35.02,6.07-2.69,6.07-6.04V27.64c0-3.34-2.7-6.04-6.04-6.04h0c-5.25,0-8-6.24-4.46-10.12l8.7-9.52C339.47.71,341.09,0,342.78,0h12.9c3.34,0,6.04,2.7,6.04,6.04Z"/>
  </g>
  <g id="F">
    <path class="cls-3" d="m91.02,0h6.32C103.31,0,108.15,4.84,108.15,10.8v86.4c0,5.96-4.84,10.8-10.8,10.8h0c-5.96,0-10.8-4.84-10.8-10.8v-49.53c0-2.86-1.14-5.61-3.16-7.63l-10.79-10.81c-4.21-4.22-4.21-11.05,0-15.26l10.79-10.8C85.41,1.14,88.16,0,91.02,0Z"/>
    <path class="cls-3" d="m108.15,32.4v49.53c0,2.86,1.14,5.61,3.16,7.64l15.27,15.27c2.03,2.03,4.77,3.16,7.64,3.16h12.65c2.86,0,5.61-1.14,7.64-3.16l15.27-15.27c2.03-2.03,3.16-4.77,3.16-7.64v-49.53c0-5.96-4.84-10.8-10.8-10.8h0c-5.96,0-10.8,4.84-10.8,10.8v43.2c0,5.96-4.84,10.8-10.8,10.8h0c-5.96,0-10.8-4.84-10.8-10.8v-43.2c0-5.96-4.84-10.8-10.8-10.8h0c-5.96,0-10.8,4.84-10.8,10.8Z"/>
    <path class="cls-3" d="m256.18,24.76l-15.27,15.27c-2.03,2.03-3.16,4.77-3.16,7.64v34.25c0,2.86,1.14,5.61,3.16,7.64l15.27,15.27c2.03,2.03,4.77,3.16,7.64,3.16h12.65c2.86,0,5.61-1.14,7.64-3.16h0c6.8-6.8,1.99-18.44-7.64-18.44h-6.33c-5.96,0-10.8-4.84-10.8-10.8h0c0-5.96,4.84-10.8,10.8-10.8h21.6c5.96,0,10.8-4.84,10.8-10.8v-6.33c0-2.86-1.14-5.61-3.16-7.64l-15.27-15.27c-2.03-2.03-4.77-3.16-7.64-3.16h-12.65c-2.86,0-5.61,1.14-7.64,3.16Z"/>
    <path class="cls-3" d="m172.95,3.47v101.06c0,1.92,1.55,3.47,3.47,3.47h14.66c1.92,0,3.47-1.55,3.47-3.47v-14.66c0-1.92,1.55-3.47,3.47-3.47h14.66c1.92,0,3.47,1.55,3.47,3.47v14.66c0,1.92,1.55,3.47,3.47,3.47h14.66c1.92,0,3.47-1.55,3.47-3.47v-16.69c0-.92-.37-1.8-1.02-2.45l-18.13-18.13c-1.35-1.35-1.35-3.55,0-4.91l18.13-18.13c.65-.65,1.02-1.53,1.02-2.45v-16.69c0-1.92-1.55-3.47-3.47-3.47h-14.66c-1.92,0-3.47,1.55-3.47,3.47v16.69c0,.92-.37,1.8-1.02,2.45l-14.66,14.66c-2.19,2.19-5.92.64-5.92-2.45V3.47c0-1.92-1.55-3.47-3.47-3.47h-14.66c-1.92,0-3.47,1.55-3.47,3.47Z"/>
    <path class="cls-1" d="m0,102.35V23.94c0-1.5.6-2.94,1.66-4L19.94,1.66C21,.6,22.44,0,23.94,0h48.83C77.8,0,80.32,6.08,76.77,9.65l-10.28,10.3c-1.06,1.06-2.5,1.66-4,1.66H27.23c-3.11,0-5.64,2.52-5.65,5.63l-.03,10.3c-.01,3.13,2.52,5.67,5.65,5.67h17.55c3.12,0,5.65,2.53,5.65,5.65v10.3c0,3.12-2.53,5.65-5.65,5.65h-17.5c-3.12,0-5.65,2.53-5.65,5.65v31.9c0,3.12-2.53,5.65-5.65,5.65H5.65C2.53,108,0,105.47,0,102.35Z"/>
  </g>
</svg>