<?xml version="1.0" encoding="UTF-8"?>
<svg id="Layer_2" data-name="Layer 2" xmlns="http://www.w3.org/2000/svg" viewBox="0 0 251.13 237.08">
  <defs>
    <style>
      .cls-1 {
        fill: #71b3e2;
      }

      .cls-2 {
        fill: #fcb316;
      }
    </style>
  </defs>
  <g id="S">
    <path id="Z" class="cls-1" d="m243.69,0h-91.05c-.41,0-.8.07-1.17.23-6.62,2.66-36.04,15.61-46.85,47.19-1.46,4.28-8.81,25.76,0,47.42,19.04,46.8,94.41,47.35,94.83,71.12.1,5.45-3.73,13.42-23.01,23.35-.45.23-.96.35-1.46.35h-21.56c-.34,0-.68.06-1.01.16-1.19.4-4.14,1.42-4.68,1.99-13.36,14.03-26.73,28.06-40.09,42.09-.34.35-.31.82-.12,1.29.46,1.16,1.64,1.88,2.9,1.88h87.97c.4,0,.78-.07,1.15-.22,6.61-2.6,36.42-15.45,47.33-47.2,1.45-4.23,8.84-25.72,0-47.42-19.07-46.81-94.41-47.36-94.83-71.12-.1-5.45,3.73-13.42,23.01-23.35.45-.23.96-.35,1.46-.35h67.18c1.75,0,3.17-1.42,3.17-3.17V3.17C246.86,1.42,245.44,0,243.69,0Z"/>
  </g>
  <g id="J">
    <path id="L" class="cls-2" d="m142.25,13.26v170.91c0,3.52-1.4,6.89-3.88,9.38l-39.65,39.65c-2.49,2.49-5.86,3.88-9.38,3.88H13.26c-7.32,0-13.26-5.94-13.26-13.26v-20.82c0-7.35,5.98-13.3,13.33-13.26l68.17.34c7.35.04,13.33-5.91,13.33-13.26V60.68c0-7.32-5.94-13.26-13.26-13.26h0c-11.53,0-17.57-13.7-9.79-22.21l19.11-20.89C93.4,1.56,96.95,0,100.68,0h28.31C136.31,0,142.25,5.94,142.25,13.26Z"/>
  </g>
</svg>